<svg width="320" height="320" viewBox="0 0 320 320" fill="none" xmlns="http://www.w3.org/2000/svg">
  <rect width="320" height="320" rx="160" fill="#F7C2C8"/>
  <circle cx="160" cy="118" r="58" fill="#F4C7A3"/>
  <path d="M112 112C112 82.1766 136.177 58 166 58C195.823 58 220 82.1766 220 112V126H112V112Z" fill="#2D1B3D"/>
  <path d="M110 250C116 198 138 172 160 172C182 172 204 198 210 250H110Z" fill="#F8E9F0"/>
  <path d="M130 236C134 210 146 192 160 192C174 192 186 210 190 236H130Z" fill="#F4C7A3"/>
  <circle cx="140" cy="112" r="6" fill="#2D1B3D"/>
  <circle cx="181" cy="112" r="6" fill="#2D1B3D"/>
  <path d="M145 136C154 145 166 145 175 136" stroke="#C76A74" stroke-width="6" stroke-linecap="round"/>
  <path d="M104 112C114 84 130 68 154 64" stroke="#2D1B3D" stroke-width="16" stroke-linecap="round"/>
  <path d="M216 112C206 84 190 68 166 64" stroke="#2D1B3D" stroke-width="16" stroke-linecap="round"/>
  <circle cx="160" cy="160" r="154" stroke="url(#paint0_linear)" stroke-width="12"/>
  <defs>
    <linearGradient id="paint0_linear" x1="30" y1="42" x2="288" y2="280" gradientUnits="userSpaceOnUse">
      <stop stop-color="#E040A0"/>
      <stop offset="0.55" stop-color="#7C52AA"/>
      <stop offset="1" stop-color="#0096CC"/>
    </linearGradient>
  </defs>
</svg>
